<svg width="2486" height="2486" viewBox="0 0 2486 2486" fill="none" xmlns="http://www.w3.org/2000/svg">
<g clip-path="url(#clip0_49_56)">
<path d="M2113.1 0H372.9C166.953 0 0 166.953 0 372.9V2113.1C0 2319.05 166.953 2486 372.9 2486H2113.1C2319.05 2486 2486 2319.05 2486 2113.1V372.9C2486 166.953 2319.05 0 2113.1 0Z" fill="#21759B"/>
<mask id="mask0_49_56" style="mask-type:luminance" maskUnits="userSpaceOnUse" x="317" y="317" width="1853" height="1853">
<path d="M317 317H2169.98V2170H317V317Z" fill="white"/>
</mask>
<g mask="url(#mask0_49_56)">
<path d="M448.697 1243.48C448.697 1558.1 631.528 1829.96 896.646 1958.81L517.51 920.012C472.06 1021.79 448.611 1132.01 448.697 1243.48ZM1780.07 1203.37C1780.07 1105.14 1744.78 1037.11 1714.52 984.166C1674.23 918.696 1636.48 863.253 1636.48 797.782C1636.48 724.72 1691.88 656.708 1769.93 656.708C1773.46 656.708 1776.8 657.147 1780.25 657.343C1638.83 527.794 1450.43 448.697 1243.51 448.697C965.837 448.697 721.544 591.162 579.426 806.947C598.074 807.507 615.663 807.885 630.575 807.885C713.71 807.885 842.397 797.797 842.397 797.797C885.243 795.272 890.294 858.201 847.509 863.268C847.509 863.268 804.437 868.334 756.525 870.845L1045.96 1731.76L1219.91 1210.1L1096.07 870.83C1053.27 868.319 1012.72 863.253 1012.72 863.253C969.89 860.742 974.911 795.256 1017.74 797.782C1017.74 797.782 1149 807.87 1227.1 807.87C1310.22 807.87 1438.92 797.782 1438.92 797.782C1481.8 795.256 1486.83 858.186 1444.02 863.253C1444.02 863.253 1400.87 868.319 1353.05 870.83L1640.28 1725.23L1719.54 1460.31C1753.92 1350.37 1780.07 1271.41 1780.07 1203.37Z" fill="white"/>
<path d="M1257.45 1313L1018.98 2005.94C1091.89 2027.42 1167.5 2038.33 1243.51 2038.33C1336.06 2038.33 1424.83 2022.32 1507.45 1993.28C1505.23 1989.81 1503.34 1986.15 1501.79 1982.33L1257.45 1313ZM1940.92 862.149C1944.34 887.466 1946.28 914.658 1946.28 943.877C1946.28 1024.53 1931.21 1115.2 1885.84 1228.57L1643.06 1930.5C1879.35 1792.71 2038.29 1536.71 2038.29 1243.48C2038.5 1110.19 2005.01 979.017 1940.92 862.149Z" fill="white"/>
<path d="M1243.51 317C732.644 317 317 732.614 317 1243.48C317 1754.4 732.629 2170.02 1243.51 2170.02C1754.36 2170.02 2170.06 1754.42 2170.06 1243.48C2170.05 732.614 1754.36 317 1243.51 317ZM1243.51 2127.53C756.071 2127.53 359.482 1730.94 359.482 1243.48C359.482 756.056 756.056 359.498 1243.51 359.498C1730.93 359.498 2127.49 756.056 2127.49 1243.48C2127.49 1730.94 1730.91 2127.53 1243.51 2127.53Z" fill="white"/>
</g>
</g>
<defs>
<clipPath id="clip0_49_56">
<rect width="2486" height="2486" fill="white"/>
</clipPath>
</defs>
</svg>
