<svg width="33" height="33" viewBox="0 0 33 33" fill="none" xmlns="http://www.w3.org/2000/svg">
<g clip-path="url(#clip0_47_1468)">
<path fill-rule="evenodd" clip-rule="evenodd" d="M24.2922 11.6449C24.0899 11.6044 23.7985 11.573 23.35 11.5261L23.0894 11.5003C23.0704 11.4972 23.0502 11.496 23.0286 11.4945C22.8108 11.4732 22.5074 11.4429 22.241 11.2893C21.9746 11.1357 21.7973 10.8879 21.6706 10.7091L21.635 10.6603L21.4802 10.4481C21.2996 10.1885 21.1086 9.93624 20.9078 9.69198C20.8032 9.87657 20.6787 10.1495 20.4898 10.5727L20.3806 10.814L20.3553 10.8708C20.2652 11.0748 20.1435 11.3507 19.9181 11.5555C19.6924 11.7616 19.4055 11.8576 19.1955 11.9272L19.1374 11.9464L18.8883 12.0301C18.443 12.1814 18.1592 12.2791 17.9685 12.3665C18.1069 12.5214 18.3243 12.7223 18.6665 13.0341L18.8603 13.2116L18.9049 13.2518C19.0684 13.3982 19.2931 13.6019 19.417 13.8834C19.5386 14.1628 19.537 14.466 19.5356 14.6887L19.5357 14.7496L19.536 15.0138C19.5354 15.467 19.5362 15.7643 19.5556 15.9729C19.7444 15.8842 20 15.737 20.3899 15.5102L20.6181 15.3774L20.6702 15.3456C20.8609 15.234 21.1224 15.0788 21.4261 15.0446C21.7314 15.0095 22.0216 15.1036 22.2303 15.1715L22.2867 15.1901L22.5372 15.2688C22.9748 15.4081 23.2565 15.4955 23.4598 15.5378C23.4386 15.328 23.3802 15.0323 23.2867 14.5714L23.2348 14.3135C23.2306 14.2933 23.2264 14.273 23.2222 14.2528C23.1773 14.0357 23.1158 13.7407 23.1794 13.4414C23.2432 13.1443 23.4203 12.899 23.5515 12.7189C23.5633 12.7024 23.5749 12.6858 23.5865 12.6691L23.7401 12.4533C23.9354 12.1917 24.1196 11.922 24.2922 11.6449ZM19.5921 16.1935C19.5927 16.1944 19.5932 16.1952 19.5936 16.1961L19.5921 16.1935ZM24.7675 10.2144C25.1144 10.3051 25.5625 10.4913 25.7795 10.9856C25.9932 11.476 25.8333 11.9322 25.669 12.2507C25.5146 12.552 25.2637 12.9023 24.9911 13.2833L24.9611 13.3256L24.8075 13.5414L24.702 13.6898L24.6559 13.7585L24.6699 13.8379L24.7046 14.0148L24.7571 14.2736L24.7678 14.3249C24.8596 14.781 24.9452 15.2015 24.9629 15.5409C24.9825 15.8999 24.9398 16.3782 24.5465 16.7368C24.1507 17.0991 23.6681 17.0934 23.3136 17.0357C22.9795 16.9838 22.5723 16.8536 22.1338 16.7148L22.0833 16.6987L21.8337 16.6194C21.7545 16.5946 21.6751 16.5707 21.5953 16.5477C21.5778 16.5553 21.557 16.5671 21.53 16.5824L21.3739 16.6721L21.1453 16.8062L21.1001 16.8319C20.6977 17.0669 20.3261 17.2833 20.0125 17.4094C19.6817 17.5417 19.2069 17.6592 18.7387 17.3889C18.2719 17.1191 18.1359 16.6501 18.0844 16.2977C18.0347 15.9626 18.0355 15.5322 18.0354 15.0656L18.0358 15.0136L18.0354 14.7494C18.0354 14.6633 18.0345 14.5773 18.0327 14.4912C17.9721 14.4333 17.9109 14.376 17.8491 14.3194L17.6554 14.1419L17.6168 14.1063C17.2769 13.7966 16.9604 13.5082 16.7475 13.2461C16.5202 12.9669 16.2743 12.5534 16.3867 12.0298C16.4984 11.509 16.8905 11.2315 17.2102 11.0675C17.512 10.9125 17.9182 10.7753 18.3578 10.6261L18.4071 10.6097L18.6571 10.5254C18.739 10.4972 18.8198 10.4687 18.9011 10.4388C18.9389 10.3596 18.9758 10.2801 19.0118 10.2002L19.1206 9.95804L19.1423 9.91123C19.3332 9.48346 19.5101 9.09 19.6927 8.80373C19.8839 8.50223 20.1973 8.13255 20.7302 8.07297C21.268 8.01179 21.6543 8.30781 21.9049 8.56343C22.1414 8.80412 22.3928 9.15016 22.6635 9.52431L22.6948 9.56745L22.8492 9.77884C22.8979 9.84633 22.9474 9.91332 22.9976 9.97978L23.0656 9.98833L23.2431 10.0073L23.5042 10.034L23.5569 10.0397C24.0148 10.0871 24.4407 10.1307 24.7671 10.2158L24.7675 10.2144ZM24.3881 24.4767C24.3385 24.5619 24.2727 24.6364 24.1944 24.6962C24.116 24.7559 24.0266 24.7996 23.9314 24.8248C23.8361 24.8499 23.7369 24.8561 23.6392 24.8429C23.5416 24.8297 23.4475 24.7974 23.3624 24.7478C17.6467 21.4221 12.269 22.8431 9.53661 24.3922C9.36357 24.4903 9.15865 24.5156 8.96692 24.4626C8.7752 24.4097 8.61238 24.2827 8.51428 24.1096C8.41618 23.9366 8.39083 23.7317 8.44382 23.5399C8.49681 23.3482 8.62379 23.1854 8.79683 23.0873C11.8633 21.3488 17.8249 19.7899 24.1169 23.451C24.2021 23.5005 24.2767 23.5663 24.3364 23.6447C24.3961 23.7231 24.4398 23.8124 24.465 23.9077C24.4902 24.0029 24.4964 24.1022 24.4832 24.1998C24.47 24.2975 24.4376 24.3915 24.3881 24.4767ZM16.8678 15.5873C16.9145 15.7806 16.8826 15.9845 16.779 16.1543C16.6754 16.324 16.5086 16.4457 16.3153 16.4925C15.0182 16.806 13.3564 17.6481 11.7635 18.6179C10.1857 19.5779 8.74308 20.6222 7.90433 21.2839C7.82741 21.3481 7.73839 21.3963 7.64253 21.4256C7.54667 21.4548 7.44593 21.4646 7.34624 21.4542C7.24655 21.4439 7.14994 21.4137 7.06213 21.3654C6.97431 21.3171 6.89707 21.2517 6.83496 21.173C6.77285 21.0944 6.72713 21.0041 6.70051 20.9075C6.67389 20.8108 6.6669 20.7099 6.67997 20.6105C6.69303 20.5111 6.72588 20.4154 6.77657 20.3289C6.82726 20.2425 6.89476 20.167 6.97509 20.1071C8.25736 19.1082 9.59542 18.183 10.9828 17.3361C12.6013 16.3507 14.4289 15.4055 15.9626 15.0349C16.1559 14.9881 16.3598 15.0201 16.5296 15.1237C16.6993 15.2273 16.821 15.394 16.8678 15.5873Z" fill="#A280C8"/>
<path d="M12.0777 11.169C12.0777 11.169 11.7484 12.1028 11.8979 12.6767C12.0457 13.2517 12.7888 13.9075 12.7888 13.9075C12.7888 13.9075 11.8539 13.5765 11.2809 13.7255C10.7064 13.8741 10.0511 14.6181 10.0511 14.6181C10.0511 14.6181 10.3812 13.6837 10.2326 13.1093C10.0831 12.5354 9.34003 11.8795 9.34003 11.8795C9.34003 11.8795 10.2744 12.2097 10.8483 12.0602C11.4227 11.9116 12.0777 11.169 12.0777 11.169Z" stroke="#A280C8" stroke-linejoin="round"/>
</g>
<defs>
<clipPath id="clip0_47_1468">
<rect width="24" height="24" fill="white" transform="translate(21.1539 0.275757) rotate(60.45)"/>
</clipPath>
</defs>
</svg>
